<svg width="146" height="35" viewBox="0 0 146 35" fill="none" xmlns="http://www.w3.org/2000/svg">
<path d="M130.289 32.5061C137.481 32.7523 145.324 28.6929 145.324 28.6929C145.324 28.6929 141.298 9.52251 131.035 8.73933C120.772 7.95809 117.58 27.7489 117.58 27.7489C117.58 27.7489 123.095 32.2618 130.289 32.5061Z" fill="#987CC8"/>
<path d="M101.504 28.0003C110.829 27.5797 120.553 22.1168 120.553 22.1168C120.553 22.1168 113.388 0.338997 100.041 0.439802C86.6938 0.540607 84.5866 23.7413 84.5866 23.7413C84.5866 23.7413 92.18 28.4229 101.504 28.0003Z" fill="#987CC8"/>
<path d="M18.6883 34.6718C9.75928 34.7105 0.211857 29.3892 0.211857 29.3892C0.211857 29.3892 6.03531 5.76781 18.793 5.17655C31.5506 4.58335 34.6523 29.2399 34.6523 29.2399C34.6523 29.2399 27.6192 34.633 18.6883 34.6718Z" fill="#987CC8"/>
<path d="M42.4937 24.7489C36.1488 24.6888 29.3968 21.116 29.3968 21.116C29.3968 21.116 33.6907 5.71799 42.7613 5.45241C51.8318 5.18877 53.875 21.3486 53.875 21.3486C53.875 21.3486 48.8406 24.8089 42.4937 24.7489Z" fill="#987CC8"/>
<path d="M67.2401 28.3191C77.0182 28.3191 87.4941 23.1702 87.4941 23.1702C87.4941 23.1702 81.2074 0.522021 67.2401 0.00830195C53.2727 -0.507355 49.7794 23.1702 49.7794 23.1702C49.7794 23.1702 57.462 28.3191 67.2401 28.3191Z" fill="#987CC8"/>
</svg>
