<svg width="166" height="55" viewBox="0 0 166 55" fill="none" xmlns="http://www.w3.org/2000/svg">
<path d="M14.3203 28.997C7.40744 28.997 0 23.856 0 23.856C0 23.856 4.44396 1.23721 14.3203 0.723107C24.1954 0.209 26.6651 23.856 26.6651 23.856C26.6651 23.856 21.2333 28.997 14.3203 28.997Z" fill="#573B91"/>
<path d="M30.1566 41.7991C22.9645 42.0453 15.1211 37.9859 15.1211 37.9859C15.1211 37.9859 19.1475 18.8155 29.4102 18.0323C39.673 17.2511 42.8658 37.0418 42.8658 37.0418C42.8658 37.0418 37.3506 41.5548 30.1566 41.7991Z" fill="#573B91"/>
<path d="M54.9409 51.2933C45.6164 50.8726 35.8926 45.4098 35.8926 45.4098C35.8926 45.4098 43.0575 23.632 56.4045 23.7328C69.7515 23.8336 71.8587 47.0343 71.8587 47.0343C71.8587 47.0343 64.2654 51.7159 54.9409 51.2933Z" fill="#573B91"/>
<path d="M153.4 21.1723C159.435 20.3485 165.444 15.8394 165.444 15.8394C165.444 15.8394 159.555 0.416161 150.888 1.23036C142.22 2.04455 142.164 19.0186 142.164 19.0186C142.164 19.0186 147.363 21.9962 153.4 21.1723Z" fill="#573B91"/>
<path d="M137.755 39.9647C146.684 40.0035 156.232 34.6822 156.232 34.6822C156.232 34.6822 150.408 11.0608 137.65 10.4695C124.893 9.87632 121.791 34.5329 121.791 34.5329C121.791 34.5329 128.824 39.926 137.755 39.9647Z" fill="#573B91"/>
<path d="M116.95 49.0418C123.295 48.9817 130.047 45.409 130.047 45.409C130.047 45.409 125.753 30.011 116.682 29.7454C107.612 29.4817 105.568 45.6416 105.568 45.6416C105.568 45.6416 110.603 49.1019 116.95 49.0418Z" fill="#573B91"/>
<path d="M90.2033 54.612C80.4252 54.612 69.9492 49.4632 69.9492 49.4632C69.9492 49.4632 76.236 26.815 90.2033 26.3013C104.171 25.7856 107.664 49.4632 107.664 49.4632C107.664 49.4632 99.9814 54.612 90.2033 54.612Z" fill="#573B91"/>
</svg>
